<svg width="359" height="74" viewBox="0 0 359 74" fill="none" xmlns="http://www.w3.org/2000/svg">
<path d="M334.427 62.3743H322.318V56.421H322.155C319.375 61.0649 315.258 63.3868 309.804 63.3868C305.781 63.3868 302.616 62.2461 300.307 59.9646C297.998 57.6831 296.844 54.639 296.845 50.8323C296.845 42.7866 301.61 38.1429 311.14 36.9012L322.399 35.4027C322.399 30.8668 319.942 28.5988 315.029 28.5988C309.995 28.6274 305.086 30.165 300.935 33.013V23.3747C303.264 22.2708 305.719 21.4548 308.245 20.945C311.012 20.2824 313.844 19.9292 316.689 19.8918C328.514 19.8918 334.427 25.7909 334.427 37.5892V62.3743ZM322.399 45.5269V42.7326L314.863 43.7045C310.707 44.2444 308.629 46.1209 308.629 49.3338C308.608 50.0055 308.733 50.6736 308.995 51.2924C309.257 51.9111 309.65 52.4657 310.147 52.918C311.287 53.8952 312.759 54.3956 314.258 54.3152C315.359 54.3519 316.455 54.1481 317.469 53.718C318.483 53.2879 319.391 52.6418 320.13 51.8248C321.668 50.0954 322.481 47.8398 322.399 45.5269ZM351.031 14.3432C349.079 14.4198 347.174 13.7293 345.725 12.4194C345.063 11.827 344.536 11.0991 344.179 10.2851C343.823 9.471 343.646 8.58984 343.66 7.70132C343.634 6.81412 343.806 5.93224 344.163 5.11971C344.52 4.30717 345.054 3.58438 345.725 3.00381C347.203 1.75278 349.096 1.10234 351.031 1.18136C352.972 1.09548 354.874 1.74644 356.356 3.00381C357.022 3.58747 357.551 4.31132 357.905 5.12347C358.258 5.93562 358.428 6.81595 358.401 7.70132C358.428 8.59866 358.259 9.49112 357.906 10.3165C357.553 11.1418 357.024 11.8802 356.356 12.4801C354.886 13.7615 352.979 14.4282 351.031 14.3432ZM357.349 62.3743H344.551V20.9044H357.349V62.3743Z" fill="#EAB308"/>
<path d="M44.1097 10.7798C42.6055 10.1606 40.998 9.83087 39.3715 9.80789C35.2676 9.80789 33.2156 12.0345 33.2156 16.4876V62.374H20.459V15.7606C20.459 11.0358 21.9979 7.22895 25.0758 4.33998C28.1537 1.451 32.3385 0.00650835 37.6303 0.00650835C39.8185 -0.0466717 42.0024 0.226295 44.1102 0.816426L44.1097 10.7798Z" fill="#0B101A"/>
<path d="M78.8021 62.3741H66.6928V56.4208H66.5309C63.7502 61.0647 59.6329 63.3866 54.1789 63.3866C50.1563 63.3866 46.9906 62.2459 44.682 59.9644C42.3735 57.6829 41.2194 54.6388 41.2197 50.8321C41.2197 42.7863 45.985 38.1426 55.5154 36.901L66.7741 35.4025C66.7741 30.8666 64.3173 28.5986 59.4036 28.5986C54.3701 28.6272 49.4609 30.1648 45.3105 33.0128V23.3745C47.6393 22.2705 50.094 21.4546 52.6203 20.9448C55.3872 20.2822 58.2192 19.929 61.0641 19.8916C72.8894 19.8916 78.8021 25.7907 78.8021 37.589V62.3741ZM66.7741 45.5267V42.7324L59.2416 43.7043C55.0853 44.2442 53.0072 46.1206 53.0072 49.3336C52.9864 50.0052 53.1114 50.6734 53.3735 51.2922C53.6357 51.9109 54.0288 52.4655 54.5257 52.9178C55.6653 53.895 57.1376 54.3954 58.6365 54.315C59.7375 54.3517 60.8333 54.1479 61.8474 53.7178C62.8615 53.2877 63.7697 52.6416 64.5086 51.8246C66.0457 50.0948 66.857 47.8392 66.7741 45.5267Z" fill="#0B101A"/>
<path d="M96.2454 57.5551H96.0834V62.3745H83.2861V0.979492H96.0834V27.1417H96.2454C99.4041 22.309 103.899 19.8926 109.731 19.8926C115.077 19.8926 119.194 21.7286 122.083 25.4006C124.972 29.0725 126.417 34.0942 126.417 40.4656C126.417 47.3772 124.729 52.9251 121.354 57.1092C117.98 61.2933 113.471 63.3857 107.828 63.3865C102.725 63.3868 98.8642 61.443 96.2454 57.5551ZM95.8808 40.0598V44.312C95.793 46.7366 96.6166 49.1062 98.1891 50.9538C98.9161 51.8057 99.8243 52.4842 100.847 52.9397C101.87 53.3951 102.982 53.616 104.102 53.5862C105.426 53.6411 106.743 53.3598 107.929 52.7685C109.115 52.1772 110.132 51.2951 110.885 50.2046C112.492 47.9502 113.295 44.7576 113.295 40.627C113.295 37.1981 112.559 34.5184 111.088 32.5879C109.616 30.6575 107.517 29.6926 104.79 29.6934C103.58 29.668 102.38 29.913 101.276 30.4104C100.173 30.9079 99.1941 31.6454 98.4118 32.569C96.7244 34.4853 95.8808 36.9819 95.8808 40.0598ZM161.771 32.4465C160.11 31.5805 158.258 31.1487 156.385 31.1913C155.132 31.1361 153.884 31.3855 152.749 31.918C151.613 32.4505 150.624 33.2503 149.865 34.249C148.299 36.2874 147.516 39.0615 147.516 42.5713V62.3745H134.719V20.9045H147.516V28.599H147.678C149.703 22.9832 153.348 20.1753 158.613 20.1753C159.687 20.1296 160.761 20.2946 161.772 20.6613L161.771 32.4465ZM174.528 14.3439C172.576 14.4206 170.672 13.7301 169.222 12.4202C168.56 11.8278 168.033 11.0999 167.677 10.2858C167.32 9.47175 167.143 8.59058 167.157 7.70207C167.131 6.81487 167.303 5.93299 167.66 5.12045C168.017 4.30792 168.551 3.58513 169.222 3.00456C170.7 1.75352 172.593 1.10309 174.528 1.18211C176.469 1.09622 178.371 1.74719 179.853 3.00456C180.52 3.58811 181.049 4.31192 181.403 5.12408C181.756 5.93623 181.926 6.81661 181.899 7.70207C181.927 8.59941 181.758 9.49187 181.404 10.3172C181.051 11.1426 180.522 11.8809 179.854 12.4809C178.384 13.7623 176.477 14.4293 174.528 14.3439ZM180.846 62.3745H168.048V20.9045H180.846V62.3745ZM223.045 60.876C220.156 62.55 215.985 63.387 210.531 63.387C204.159 63.387 199.002 61.4573 195.061 57.5979C191.119 53.7385 189.148 48.7566 189.147 42.6521C189.147 35.6053 191.26 30.0504 195.485 25.9873C199.711 21.9241 205.36 19.8926 212.434 19.8926C217.321 19.8926 220.858 20.5405 223.045 21.8364V32.6909C220.476 30.7277 217.328 29.6735 214.095 29.6939C210.423 29.6939 207.514 30.7672 205.368 32.9136C203.221 35.06 202.148 38.023 202.148 41.8026C202.148 45.4746 203.174 48.3567 205.226 50.449C207.277 52.5412 210.099 53.5873 213.69 53.5873C217.036 53.5369 220.292 52.4936 223.044 50.5898L223.045 60.876Z" fill="#0B101A"/>
<path d="M72.7903 39.528C71.9709 34.8583 75.1332 26.2893 64.7062 23.4772C54.2791 20.665 44.912 31.6044 28.673 31.3093C12.4341 31.0143 5.10254 19.9395 5.10254 19.9395" stroke="#0B101A" stroke-width="12.2462"/>
<path d="M244.74 73.0332L265.379 55.102L272.684 47.7967L266.582 42.4618L259.661 49.3831L241.931 70.2249L244.74 73.0332ZM279.566 40.5252L296.696 21.0767L293.888 18.2684L274.279 35.2171C275.949 36.887 278.337 39.2806 279.567 40.5224L279.566 40.5252Z" fill="#EAB308"/>
<path d="M280.225 73.0332L283.034 70.2244L268.728 53.6715L263.651 58.4324L280.225 73.0332ZM255.969 51.485L261.688 45.7666L251.917 35.9969L231.077 18.2684L228.268 21.0767L246.199 41.7153L255.969 51.4844L255.969 51.485Z" fill="#0B101A"/>
<path d="M290.488 61.9004L293.296 59.0916L273.465 36.149L267.84 30.5235L262.152 36.2725L267.746 41.8674L290.488 61.9004ZM255.012 28.9137L261.171 24.0052L241.34 7.13503L238.532 9.94329L255.012 28.9131L255.012 28.9137Z" fill="#0B101A"/>
<path d="M233.506 60.7871L249.196 47.1549L244.407 41.8612L230.697 57.9788L233.506 60.7871ZM256.765 40.2358L265.429 31.5711L285.462 8.83057L282.654 6.0223L259.711 25.8527L251.361 34.2024L256.764 40.2353L256.765 40.2358Z" fill="#EAB308"/>
</svg>
