<svg width="588" height="109" viewBox="0 0 588 109" fill="none" xmlns="http://www.w3.org/2000/svg">
<path d="M546.067 106.878H525.318V96.6772H525.04C520.275 104.635 513.22 108.613 503.876 108.613C496.983 108.613 491.558 106.659 487.603 102.749C483.647 98.8398 481.669 93.6237 481.67 87.1009C481.67 73.3145 489.835 65.3575 506.166 63.2298L525.458 60.6622C525.458 52.8899 521.248 49.0037 512.828 49.0037C504.203 49.0526 495.791 51.6874 488.679 56.5675V40.0522C492.67 38.1605 496.875 36.7624 501.204 35.8888C505.945 34.7535 510.798 34.1482 515.672 34.0842C535.935 34.0842 546.067 44.1924 546.067 64.4088V106.878ZM525.457 78.0101V73.222L512.545 74.8873C505.423 75.8125 501.862 79.0278 501.862 84.5333C501.827 85.6841 502.041 86.8291 502.49 87.8893C502.939 88.9495 503.613 89.8998 504.464 90.6749C506.417 92.3492 508.94 93.2066 511.508 93.0689C513.395 93.1319 515.272 92.7827 517.01 92.0457C518.748 91.3086 520.304 90.2016 521.57 88.8016C524.205 85.8383 525.597 81.9733 525.457 78.0101ZM574.518 24.5766C571.173 24.7079 567.91 23.5247 565.427 21.2802C564.292 20.2651 563.389 19.0178 562.778 17.6229C562.168 16.228 561.864 14.7181 561.888 13.1957C561.844 11.6754 562.138 10.1643 562.75 8.77204C563.362 7.37975 564.277 6.14125 565.427 5.14644C567.959 3.00277 571.203 1.88824 574.518 2.02365C577.845 1.87649 581.104 2.99192 583.643 5.14644C584.785 6.14654 585.691 7.38686 586.297 8.77849C586.903 10.1701 587.193 11.6786 587.147 13.1957C587.194 14.7333 586.904 16.2625 586.299 17.6767C585.694 19.091 584.787 20.3562 583.643 21.3841C581.124 23.5798 577.857 24.7221 574.518 24.5766ZM585.344 106.878H563.416V35.8192H585.344V106.878Z" fill="#EAB308"/>
<path d="M64.4912 0.488281C68.0728 0.401237 71.6475 0.831585 75.1055 1.76367V17.7725C72.6641 16.8556 70.0809 16.366 67.4697 16.3291H67.4639C63.8638 16.3291 61.0782 17.307 59.2012 19.3438C57.3309 21.3731 56.4385 24.3724 56.4385 28.252V106.401H35.5332V27.0059C35.5332 19.0243 38.128 12.6331 43.2939 7.78418C48.4585 2.93664 55.5012 0.48835 64.4795 0.488281H64.4912Z" fill="white" stroke="white" stroke-width="0.953813"/>
<path d="M104.637 34.5605C114.693 34.5613 122.147 37.0703 127.091 42.0029C132.035 46.936 134.55 54.374 134.55 64.4082V106.401H114.754V96.2002H113.729L113.591 96.4316C108.913 104.244 102.014 108.136 92.835 108.136C86.0358 108.136 80.7427 106.211 76.8965 102.41C73.047 98.6058 71.1048 93.5197 71.1055 87.1006C71.1055 80.3072 73.1142 75.0052 77.0859 71.1348C81.0684 67.254 87.0797 64.7583 95.1865 63.7021H95.1875L114.479 61.1348L114.894 61.0801V60.6621C114.894 56.6922 113.817 53.6295 111.583 51.5674C109.356 49.5119 106.061 48.5264 101.787 48.5264H101.784C93.3639 48.5741 85.1443 51.0598 78.1152 55.6729V40.3564C81.9895 38.5462 86.0653 37.2025 90.2578 36.3564L90.2754 36.3525C94.9815 35.2256 99.798 34.6243 104.637 34.5605ZM114.355 72.749L101.448 74.4141C97.8362 74.8833 95.0578 75.9411 93.1777 77.6387C91.282 79.3505 90.3496 81.6676 90.3496 84.5332H90.3506C90.3151 85.7479 90.5415 86.9561 91.0156 88.0752C91.4916 89.1987 92.2051 90.206 93.1074 91.0273L93.1182 91.0371C95.1594 92.7874 97.7956 93.6843 100.48 93.5449C102.428 93.6065 104.367 93.2454 106.161 92.4844C107.963 91.7203 109.576 90.5724 110.889 89.1211L110.891 89.1182C113.521 86.1581 114.949 82.3264 114.902 78.376L114.894 77.9932V72.6797L114.355 72.749Z" fill="white" stroke="white" stroke-width="0.953813"/>
<path d="M364.007 34.5625C372.184 34.5625 378.06 35.6284 381.712 37.6924V55.0742C377.517 52.1096 372.521 50.4795 367.378 50.4053L366.853 50.4033C360.463 50.4033 355.346 52.2742 351.562 56.0596C347.774 59.8477 345.905 65.0589 345.904 71.6289C345.904 78.0123 347.691 83.083 351.314 86.7783C354.939 90.4747 359.909 92.2988 366.159 92.2988H366.166C371.694 92.2156 377.08 90.5745 381.711 87.5762V104.031C376.874 106.749 369.904 108.137 360.746 108.137C349.932 108.137 341.223 104.866 334.571 98.3535C327.919 91.8401 324.583 83.4309 324.582 73.084L324.593 71.9688C324.81 60.5267 328.391 51.5122 335.296 44.8721C342.429 38.0126 351.982 34.5625 364.007 34.5625ZM164.162 2.1543V46.9834H165.175L165.315 46.7676C170.639 38.6231 178.191 34.5626 188.024 34.5625C197.062 34.5625 203.969 37.6588 208.815 43.8184C213.679 50.0003 216.139 58.4891 216.139 69.3379C216.139 81.1033 213.267 90.4938 207.57 97.5566C201.883 104.608 194.297 108.134 184.764 108.136C176.162 108.136 169.702 104.871 165.312 98.3545L165.171 98.1436H164.162V106.401H143.188V2.1543H164.162ZM309.403 36.2959V106.401H288.429V36.2959H309.403ZM271.804 35.0469C273.472 34.9758 275.138 35.2113 276.719 35.7412V54.8291C274.17 53.6268 271.391 52.9898 268.572 52.9648L267.956 52.9688C265.743 52.8763 263.539 53.319 261.533 54.2598C259.519 55.2046 257.762 56.623 256.416 58.3945C253.649 61.9964 252.293 66.8643 252.293 72.9453V106.401H231.318V36.2959H252.293V49.4805H253.382L253.496 49.166C255.209 44.4152 257.593 40.8925 260.625 38.5566C263.653 36.2243 267.363 35.0469 271.784 35.0469H271.804ZM179.568 50.4023C177.424 50.3574 175.296 50.7913 173.341 51.6729C171.388 52.5532 169.656 53.8576 168.271 55.4912C165.288 58.879 163.815 63.2776 163.815 68.6426V75.9287C163.665 80.1962 165.116 84.366 167.884 87.6182L167.885 87.6191C169.176 89.1328 170.791 90.3381 172.608 91.1475C174.426 91.9567 176.402 92.3488 178.391 92.2959C180.729 92.3876 183.054 91.8902 185.149 90.8457C187.252 89.7975 189.055 88.2341 190.391 86.3018C193.223 82.3272 194.608 76.7448 194.608 69.6143C194.608 63.6763 193.335 58.9688 190.729 55.5498C188.107 52.11 184.363 50.4031 179.567 50.4023H179.568ZM299.075 2.50098C302.279 2.35924 305.418 3.4335 307.864 5.50684H307.865C308.954 6.46037 309.819 7.64269 310.397 8.96973C310.976 10.2969 311.252 11.7357 311.209 13.1826L311.208 13.1973L311.209 13.2109C311.253 14.6792 310.976 16.1398 310.398 17.4902C309.821 18.8405 308.955 20.0478 307.862 21.0293C305.435 23.1419 302.29 24.2424 299.075 24.1016L299.056 24.1006L299.035 24.1016C295.815 24.2279 292.674 23.0885 290.283 20.9277L290.281 20.9258C289.197 19.9563 288.335 18.7648 287.752 17.4326C287.169 16.1004 286.878 14.6582 286.901 13.2041V13.1826C286.859 11.7333 287.139 10.2922 287.723 8.96484C288.306 7.63752 289.179 6.45721 290.275 5.50879L290.274 5.50781C292.714 3.44336 295.842 2.37051 299.035 2.50098L299.055 2.50195L299.075 2.50098Z" fill="white" stroke="white" stroke-width="0.953813"/>
<path d="M124.726 67.7321C123.322 59.7305 128.74 45.0476 110.874 40.2289C93.0067 35.4103 76.956 54.1549 49.1304 53.6494C21.3049 53.1438 8.74219 34.167 8.74219 34.167" stroke="white" stroke-width="20.9839"/>
<path d="M468.846 37.6973L446.222 70.8965L468.712 106.238H444.348L434.442 87.7638C433.638 86.2913 432.679 84.2163 431.563 81.539H431.296C430.626 83.4131 429.712 85.4211 428.551 87.563L418.578 106.238H394.281L417.44 72.1013L395.687 37.6973H420.185L429.957 56.9073C431.251 59.4508 432.166 61.5927 432.701 63.333H432.969C433.683 61.2357 434.642 59.0492 435.847 56.7734L445.82 37.6973H468.846Z" fill="white"/>
</svg>
